<svg width="24" height="24" viewBox="0 0 24 24" fill="none" xmlns="http://www.w3.org/2000/svg">
<path d="M9.10714 0V3.9024C9.10714 4.14109 9.20309 4.37001 9.37389 4.5388C9.54468 4.70758 9.77632 4.8024 10.0179 4.8024C10.2594 4.8024 10.491 4.70758 10.6618 4.5388C10.8326 4.37001 10.9286 4.14109 10.9286 3.9024V0H12.1429V5.1012C12.1429 5.33989 12.2388 5.56881 12.4096 5.7376C12.5804 5.90638 12.812 6.0012 13.0536 6.0012C13.2951 6.0012 13.5268 5.90638 13.6975 5.7376C13.8683 5.56881 13.9643 5.33989 13.9643 5.1012V0H16.0893C16.3308 0 16.5625 0.094821 16.7333 0.263604C16.9041 0.432387 17 0.661305 17 0.9V10.8H0V0.9C0 0.661305 0.0959499 0.432387 0.266742 0.263604C0.437534 0.094821 0.669178 0 0.910714 0H9.10714ZM0 12.6V14.7024C0 15.4185 0.28785 16.1052 0.800226 16.6116C1.3126 17.1179 2.00753 17.4024 2.73214 17.4024H6.07143V21.6C6.07143 22.2365 6.3273 22.847 6.78274 23.2971C7.23819 23.7471 7.8559 24 8.5 24C9.1441 24 9.76181 23.7471 10.2173 23.2971C10.6727 22.847 10.9286 22.2365 10.9286 21.6V17.4024H14.2679C14.6266 17.4024 14.9819 17.3326 15.3134 17.1969C15.6449 17.0612 15.9461 16.8623 16.1998 16.6116C16.4535 16.3609 16.6547 16.0632 16.792 15.7356C16.9293 15.4081 17 15.057 17 14.7024V12.6H0Z" fill="#F2C511"/>
</svg>
