<svg width="24" height="24" viewBox="0 0 24 23" fill="none" xmlns="http://www.w3.org/2000/svg">
<mask id="mask0_85_6" style="mask-type:luminance" maskUnits="userSpaceOnUse" x="0" y="3" width="24" height="16">
<path d="M24 3H0V18.6909H24V3Z" fill="white"/>
</mask>
<g mask="url(#mask0_85_6)">
<path d="M22.3 3H1.7C0.761116 3 0 3.74641 0 4.66716V17.0238C0 17.9445 0.761116 18.6909 1.7 18.6909H22.3C23.2389 18.6909 24 17.9445 24 17.0238V4.66716C24 3.74641 23.2389 3 22.3 3Z" fill="#DE2910"/>
<path d="M3.15078 9.20728L3.66632 7.64138L2.31152 6.67063L3.98942 6.66759L4.5122 5.104L5.03364 6.668L6.71152 6.67243L5.35592 7.64207L5.87014 9.20838L4.51086 8.24366L3.15078 9.20728Z" fill="#FFDE00"/>
<path d="M7.8286 10.8055L8.39474 11.0286L8.78818 10.5713L8.74676 11.1683L9.31186 11.3939L8.7201 11.5397L8.67592 12.1365L8.35162 11.6297L7.75922 11.7729L8.15054 11.3138L7.8286 10.8055Z" fill="#FFDE00"/>
<path d="M10.9156 7.99293L10.3145 7.89011L10.0266 8.41768L9.94061 7.82531L9.34003 7.71983L9.88793 7.45651L9.80463 6.86377L10.2293 7.29343L10.7784 7.03257L10.4929 7.56139L10.9156 7.99293Z" fill="#FFDE00"/>
<path d="M9.6167 10.4779L9.80418 9.90852L9.31152 9.55552L9.92166 9.5544L10.1118 8.98584L10.3014 9.55456L10.9115 9.55616L10.4186 9.90876L10.6056 10.4783L10.1113 10.1275L9.6167 10.4779Z" fill="#FFDE00"/>
<path d="M8.62837 5.27742L9.18181 5.52928L9.59913 5.09277L9.52589 5.68679L10.0782 5.94112L9.47947 6.05639L9.40349 6.65008L9.10669 6.1273L8.50745 6.23988L8.92273 5.80151L8.62837 5.27742Z" fill="#FFDE00"/>
</g>
</svg>
