<svg width="24" height="24" viewBox="0 0 24 24" fill="none" xmlns="http://www.w3.org/2000/svg">
<path d="M7.30314 20.3478L14.4984 3.71763C14.6194 3.43986 14.8429 3.21822 15.1233 3.09794C15.4037 2.97766 15.7199 2.9678 16.0075 3.07037C16.295 3.17294 16.5321 3.38021 16.6705 3.6499C16.8089 3.91958 16.838 4.23134 16.7521 4.52158L16.7041 4.65221L9.50877 21.2824C9.38783 21.5601 9.16435 21.7818 8.88392 21.9021C8.60349 22.0223 8.28726 22.0322 7.99973 21.9296C7.71221 21.8271 7.47507 21.6198 7.3367 21.3501C7.19833 21.0804 7.16916 20.7687 7.25513 20.4784L7.30314 20.3478ZM0.351438 11.6574L5.15151 6.90733C5.36746 6.69435 5.65723 6.5707 5.96198 6.56149C6.26672 6.55228 6.56358 6.6582 6.79226 6.85775C7.02094 7.05729 7.1643 7.3355 7.19321 7.63585C7.22213 7.9362 7.13443 8.23619 6.94793 8.47487L6.84833 8.5865L2.89667 12.497L6.84833 16.4076C7.06584 16.6208 7.19277 16.9082 7.20315 17.211C7.21353 17.5138 7.10658 17.809 6.90417 18.0364C6.70177 18.2637 6.41922 18.4058 6.11437 18.4337C5.80952 18.4616 5.50542 18.3732 5.26431 18.1865L5.15151 18.0867L0.351438 13.3366C0.144823 13.1321 0.0207044 12.8601 0.00236668 12.5715C-0.015971 12.2829 0.072733 11.9976 0.251837 11.7691L0.351438 11.6574ZM17.1517 6.90614C17.3583 6.70168 17.6332 6.57885 17.9249 6.5607C18.2165 6.54256 18.5048 6.63034 18.7357 6.80758L18.8473 6.90614L23.6486 11.6574C23.8552 11.8619 23.9793 12.134 23.9976 12.4226C24.016 12.7112 23.9273 12.9965 23.7482 13.225L23.6486 13.3378L18.8473 18.082C18.6313 18.295 18.3416 18.4186 18.0368 18.4278C17.7321 18.437 17.4352 18.3311 17.2065 18.1316C16.9779 17.932 16.8345 17.6538 16.8056 17.3535C16.7767 17.0531 16.8644 16.7531 17.0509 16.5144L17.1517 16.4016L21.1009 12.497L17.1493 8.58531C16.9243 8.36261 16.7979 8.06062 16.7979 7.74573C16.7979 7.43084 16.9243 7.12884 17.1493 6.90614H17.1517Z" fill="#27AF60"/>
</svg>
