<svg width="1150" height="871" viewBox="0 0 1150 871" fill="none" xmlns="http://www.w3.org/2000/svg">
<path d="M736.89 0C725.651 19.936 715.561 40.56 706.386 61.641C619.237 48.58 530.482 48.58 443.099 61.641C434.155 40.56 423.834 19.936 412.598 0C330.72 13.978 250.909 38.497 175.227 73.099C25.2348 295.145 -15.3591 511.464 4.82387 724.803C92.6609 789.65 191.052 839.15 295.86 870.77C319.484 839.15 340.353 805.46 358.242 770.4C324.3 757.8 291.504 741.99 260.084 723.658C268.341 717.698 276.367 711.511 284.166 705.554C468.327 792.17 681.619 792.17 866.01 705.554C873.81 711.971 881.84 718.158 890.09 723.658C858.67 742.22 825.876 757.8 791.704 770.63C809.593 805.69 830.462 839.38 854.09 871C958.89 839.38 1057.29 790.11 1145.12 725.26C1168.97 477.778 1104.3 263.294 974.26 73.329C898.81 38.727 818.996 14.207 737.121 0.458008L736.89 0ZM383.93 593.499C327.283 593.499 280.265 542.169 280.265 478.695C280.265 415.221 325.446 363.661 383.7 363.661C441.954 363.661 488.28 415.448 487.365 478.695C486.446 541.939 441.723 593.499 383.93 593.499ZM766.016 593.499C709.138 593.499 662.584 542.169 662.584 478.695C662.584 415.221 707.765 363.661 766.016 363.661C824.27 363.661 870.37 415.448 869.45 478.695C868.54 541.939 823.812 593.499 766.016 593.499Z" fill="white"/>
</svg>
