<svg width="24" height="24" viewBox="0 0 24 24" fill="none" xmlns="http://www.w3.org/2000/svg">
<path d="M17.8528 17.8523L16.4272 19.2624C15.3762 20.2929 14.013 21.6189 12.3363 23.2404C11.8323 23.7276 11.1588 24 10.4578 24C9.75682 24 9.08326 23.7276 8.57931 23.2404L4.38635 19.1615C3.85907 18.6438 3.41828 18.2078 3.06276 17.8523C1.60028 16.3897 0.604349 14.5263 0.200893 12.4977C-0.202562 10.4691 0.00458104 8.36647 0.796129 6.4556C1.58768 4.54473 2.92808 2.91149 4.64784 1.7624C6.3676 0.61332 8.38948 0 10.4578 0C12.5261 0 14.548 0.61332 16.2678 1.7624C17.9875 2.91149 19.3279 4.54473 20.1195 6.4556C20.911 8.36647 21.1182 10.4691 20.7147 12.4977C20.3113 14.5263 19.3153 16.3897 17.8528 17.8523ZM13.4605 10.7876C13.4605 9.9912 13.1441 9.22745 12.581 8.66433C12.0179 8.10122 11.2542 7.78486 10.4578 7.78486C9.66144 7.78486 8.89769 8.10122 8.33457 8.66433C7.77146 9.22745 7.4551 9.9912 7.4551 10.7876C7.4551 11.5839 7.77146 12.3477 8.33457 12.9108C8.89769 13.4739 9.66144 13.7903 10.4578 13.7903C11.2542 13.7903 12.0179 13.4739 12.581 12.9108C13.1441 12.3477 13.4605 11.5839 13.4605 10.7876Z" fill="#3398DB"/>
</svg>
