<svg width="24" height="24" viewBox="0 0 24 24" fill="none" xmlns="http://www.w3.org/2000/svg">
<path d="M19.9998 0.899424C19.9997 0.75922 19.9675 0.620978 19.9058 0.495717C19.844 0.370457 19.7544 0.261643 19.6442 0.17795C19.5339 0.0942574 19.406 0.0380001 19.2706 0.0136633C19.1353 -0.0106736 18.9962 -0.00241682 18.8645 0.037775L7.09983 3.63798C6.91803 3.69347 6.75861 3.80726 6.64523 3.96248C6.53185 4.1177 6.47055 4.30606 6.47042 4.49963V16.3527C5.70723 15.8107 4.78665 15.5482 3.85855 15.6078C2.93045 15.6675 2.04948 16.0459 1.35908 16.6814C0.668673 17.3169 0.209487 18.1721 0.0562754 19.1078C-0.0969365 20.0434 0.0648489 21.0044 0.515293 21.8343C0.965737 22.6642 1.67831 23.3141 2.53701 23.6782C3.39571 24.0423 4.34996 24.0993 5.24441 23.8397C6.13886 23.5801 6.92083 23.0193 7.46302 22.2486C8.00521 21.478 8.27569 20.5428 8.23041 19.5953C8.2336 19.5638 8.23517 19.5321 8.23512 19.5005V9.96954L18.2351 6.90937V13.9538C17.4719 13.4118 16.5513 13.1492 15.6232 13.2089C14.6951 13.2686 13.8142 13.647 13.1238 14.2825C12.4334 14.918 11.9742 15.7732 11.821 16.7088C11.6678 17.6445 11.8295 18.6054 12.28 19.4353C12.7304 20.2652 13.443 20.9151 14.3017 21.2793C15.1604 21.6434 16.1147 21.7003 17.0091 21.4407C17.9036 21.1812 18.6855 20.6204 19.2277 19.8497C19.7699 19.079 20.0404 18.1438 19.9951 17.1964C19.9983 17.1645 19.9999 17.1324 19.9998 17.1003V0.899424Z" fill="#1FBC9C"/>
</svg>
