<svg width="24" height="24" viewBox="0 0 24 24" fill="none" xmlns="http://www.w3.org/2000/svg">
<path d="M3.5 0C2.57174 0 1.6815 0.379285 1.02513 1.05442C0.368749 1.72955 0 2.64522 0 3.6V20.4C0 21.3548 0.368749 22.2705 1.02513 22.9456C1.6815 23.6207 2.57174 24 3.5 24H10.5C11.4283 24 12.3185 23.6207 12.9749 22.9456C13.6313 22.2705 14 21.3548 14 20.4V3.6C14 2.64522 13.6313 1.72955 12.9749 1.05442C12.3185 0.379285 11.4283 0 10.5 0H3.5ZM2.91667 5.7C2.91667 5.46131 3.00885 5.23239 3.17295 5.0636C3.33704 4.89482 3.5596 4.8 3.79167 4.8H10.2083C10.4404 4.8 10.663 4.89482 10.8271 5.0636C10.9911 5.23239 11.0833 5.46131 11.0833 5.7C11.0833 5.9387 10.9911 6.16761 10.8271 6.3364C10.663 6.50518 10.4404 6.6 10.2083 6.6H3.79167C3.5596 6.6 3.33704 6.50518 3.17295 6.3364C3.00885 6.16761 2.91667 5.9387 2.91667 5.7ZM2.91667 18.9C2.91667 18.6613 3.00885 18.4324 3.17295 18.2636C3.33704 18.0948 3.5596 18 3.79167 18H10.2083C10.4404 18 10.663 18.0948 10.8271 18.2636C10.9911 18.4324 11.0833 18.6613 11.0833 18.9C11.0833 19.1387 10.9911 19.3676 10.8271 19.5364C10.663 19.7052 10.4404 19.8 10.2083 19.8H3.79167C3.5596 19.8 3.33704 19.7052 3.17295 19.5364C3.00885 19.3676 2.91667 19.1387 2.91667 18.9ZM2.91667 15.3C2.91667 15.0613 3.00885 14.8324 3.17295 14.6636C3.33704 14.4948 3.5596 14.4 3.79167 14.4H10.2083C10.4404 14.4 10.663 14.4948 10.8271 14.6636C10.9911 14.8324 11.0833 15.0613 11.0833 15.3C11.0833 15.5387 10.9911 15.7676 10.8271 15.9364C10.663 16.1052 10.4404 16.2 10.2083 16.2H3.79167C3.5596 16.2 3.33704 16.1052 3.17295 15.9364C3.00885 15.7676 2.91667 15.5387 2.91667 15.3Z" fill="#F2C511"/>
</svg>
