<svg width="21" height="21" viewBox="0 0 21 21" fill="none" xmlns="http://www.w3.org/2000/svg">
<path d="M14.7707 1.02449e-06C13.9449 -0.000244544 13.1307 0.194303 12.3943 0.567838C11.6578 0.941373 11.0199 1.48336 10.5323 2.14977C10.0446 2.81619 9.72106 3.58823 9.58787 4.40318C9.45467 5.21814 9.5156 6.05302 9.76569 6.84L0.697685 16.22C0.475236 16.4395 0.298922 16.7012 0.179112 16.9899C0.0593014 17.2785 -0.00158564 17.5882 3.1383e-05 17.9007C0.00164841 18.2132 0.0657368 18.5222 0.188527 18.8095C0.311318 19.0969 0.490332 19.3568 0.715041 19.574C0.939749 19.7912 1.20562 19.9612 1.497 20.0741C1.78839 20.1871 2.09942 20.2406 2.41179 20.2315C2.72416 20.2225 3.03158 20.1511 3.31595 20.0215C3.60032 19.8919 3.85591 19.7068 4.06769 19.477L13.0307 10.205C13.94 10.5249 14.9199 10.5883 15.8629 10.3881C16.8058 10.188 17.6755 9.7321 18.3765 9.07044C19.0775 8.40877 19.5828 7.56686 19.8371 6.63702C20.0913 5.70718 20.0846 4.72529 19.8177 3.799C19.7815 3.67381 19.7133 3.5602 19.6199 3.46938C19.5265 3.37855 19.411 3.31364 19.2848 3.28104C19.1586 3.24844 19.0261 3.24927 18.9004 3.28346C18.7746 3.31764 18.66 3.38401 18.5677 3.476L15.3807 6.659L13.3207 4.599L16.4807 1.437C16.5736 1.34411 16.6405 1.22844 16.6746 1.10157C16.7088 0.974705 16.709 0.84109 16.6753 0.714105C16.6416 0.587121 16.5751 0.471222 16.4825 0.378013C16.3899 0.284805 16.2744 0.217556 16.1477 0.183001C15.6985 0.0612488 15.2361 -0.000289588 14.7707 1.02449e-06Z" fill="#A463BF"/>
</svg>
