<svg width="20" height="19" viewBox="0 0 20 19" fill="none" xmlns="http://www.w3.org/2000/svg">
<path d="M6.207 2C6.667 2 7.115 2.141 7.491 2.402L7.647 2.522L10.022 4.5H17.75C18.2928 4.49982 18.8174 4.69588 19.227 5.05204C19.6367 5.40819 19.9037 5.90043 19.979 6.438L19.995 6.596L20 6.75V15.75C20.0001 16.3201 19.7837 16.869 19.3946 17.2858C19.0056 17.7025 18.4728 17.956 17.904 17.995L17.75 18H2.25C1.67987 18.0001 1.13098 17.7837 0.714247 17.3946C0.297514 17.0056 0.0440221 16.4728 0.00500013 15.904L1.69987e-08 15.75V4.25C-7.00219e-05 3.67987 0.216295 3.13098 0.605369 2.71425C0.994443 2.29751 1.52721 2.04402 2.096 2.005L2.25 2H6.207ZM7.647 7.979C7.29425 8.27254 6.86018 8.45119 6.403 8.491L6.207 8.5L1.5 8.499V15.75C1.5 16.13 1.782 16.444 2.148 16.493L2.25 16.5H17.75C17.9312 16.5 18.1063 16.4344 18.2429 16.3152C18.3795 16.1961 18.4684 16.0316 18.493 15.852L18.5 15.75V6.75C18.5 6.56876 18.4344 6.39366 18.3152 6.25707C18.1961 6.12048 18.0316 6.03165 17.852 6.007L17.75 6H10.021L7.647 7.979ZM6.207 3.5H2.25C2.06876 3.50001 1.89366 3.56564 1.75707 3.68477C1.62048 3.80389 1.53165 3.96845 1.507 4.148L1.5 4.25V6.999L6.207 7C6.34662 6.99983 6.48342 6.9607 6.602 6.887L6.687 6.827L8.578 5.249L6.688 3.674C6.5804 3.5842 6.4498 3.52635 6.311 3.507L6.207 3.5Z" fill="#9AECFE"/>
</svg>
