<svg width="18" height="19" viewBox="0 0 18 19" fill="none" xmlns="http://www.w3.org/2000/svg">
<g clip-path="url(#clip0_39_7)">
<path d="M7.55 0.516102C7.95577 0.182799 8.46934 0 9 0C9.53066 0 10.0442 0.182799 10.45 0.516102L17.2 6.06371C17.707 6.48085 18 7.09389 18 7.74007V17.2944C18 17.7467 17.8156 18.1806 17.4874 18.5004C17.1592 18.8203 16.7141 19 16.25 19H12.75C12.2859 19 11.8408 18.8203 11.5126 18.5004C11.1844 18.1806 11 17.7467 11 17.2944V11.9339C11 11.8693 10.9737 11.8073 10.9268 11.7616C10.8799 11.7159 10.8163 11.6903 10.75 11.6903H7.25C7.1837 11.6903 7.12011 11.7159 7.07322 11.7616C7.02634 11.8073 7 11.8693 7 11.9339V17.2944C7 17.7467 6.81563 18.1806 6.48744 18.5004C6.15925 18.8203 5.71413 19 5.25 19H1.75C1.52019 19 1.29262 18.9559 1.0803 18.8702C0.867984 18.7845 0.675066 18.6588 0.512563 18.5004C0.350061 18.3421 0.221157 18.154 0.133211 17.9471C0.0452652 17.7402 0 17.5184 0 17.2944V7.74007C0 7.09389 0.293 6.48085 0.8 6.06371L7.55 0.516102ZM9.483 1.634C9.34779 1.52307 9.17674 1.46224 9 1.46224C8.82326 1.46224 8.65221 1.52307 8.517 1.634L1.767 7.18064C1.68347 7.24917 1.6163 7.33465 1.57018 7.43111C1.52406 7.52757 1.50011 7.63268 1.5 7.7391V17.2934C1.5 17.4279 1.612 17.5371 1.75 17.5371H5.25C5.3163 17.5371 5.37989 17.5114 5.42678 17.4657C5.47366 17.42 5.5 17.358 5.5 17.2934V11.9329C5.5 10.9905 6.284 10.2273 7.25 10.2273H10.75C11.716 10.2273 12.5 10.9905 12.5 11.9329V17.2934C12.5 17.4279 12.612 17.5371 12.75 17.5371H16.25C16.3163 17.5371 16.3799 17.5114 16.4268 17.4657C16.4737 17.42 16.5 17.358 16.5 17.2934V7.74007C16.4999 7.63366 16.4759 7.52855 16.4298 7.43209C16.3837 7.33563 16.3165 7.25014 16.233 7.18161L9.483 1.634Z" fill="#d2d2d2"/>
</g>
<defs>
<clipPath id="clip0_39_7">
<rect width="18" height="19" fill="white"/>
</clipPath>
</defs>
</svg>
