<svg width="20" height="20" viewBox="0 0 20 20" fill="none" xmlns="http://www.w3.org/2000/svg">
<g clip-path="url(#clip0_63_4)">
<path d="M5.139 1.006C5.971 0.358 7.059 0 8.139 0C8.786 0 9.309 0.222 9.706 0.575C9.814 0.67 9.909 0.773 9.994 0.879C10.078 0.773 10.174 0.67 10.281 0.575C10.677 0.222 11.201 0 11.847 0C12.929 0 14.017 0.358 14.848 1.006C15.495 1.509 16.002 2.204 16.201 3.043C16.621 3.113 16.995 3.327 17.297 3.61C17.777 4.061 18.119 4.713 18.335 5.384C18.553 6.065 18.663 6.83 18.63 7.565C18.613 7.941 18.558 8.325 18.452 8.692L18.518 8.722C18.888 8.896 19.188 9.169 19.412 9.532C19.837 10.217 19.987 11.203 19.987 12.46C19.987 13.905 19.435 14.886 18.725 15.495C18.3552 15.8122 17.9223 16.0473 17.455 16.185C17.2851 16.9665 16.9363 17.698 16.436 18.322C15.713 19.226 14.59 19.99 13.079 19.99C11.869 19.99 10.916 19.32 10.304 18.68C10.1955 18.5656 10.092 18.4465 9.994 18.323C9.89594 18.4462 9.79251 18.5649 9.684 18.679C9.071 19.321 8.118 19.99 6.908 19.99C5.398 19.99 4.274 19.226 3.551 18.322C3.05064 17.6981 2.70183 16.9666 2.532 16.185C2.06466 16.0473 1.63181 15.8122 1.262 15.495C0.552 14.885 0 13.905 0 12.46C0 11.203 0.15 10.217 0.575 9.532C0.799955 9.15906 1.1355 8.86546 1.535 8.692C1.43225 8.32452 1.37285 7.94628 1.358 7.565C1.325 6.83 1.434 6.065 1.653 5.384C1.868 4.714 2.21 4.061 2.691 3.61C2.99183 3.31678 3.37292 3.11944 3.786 3.043C3.985 2.203 4.492 1.509 5.139 1.006ZM6.06 2.189C5.515 2.614 5.195 3.18 5.195 3.832C5.19491 3.95078 5.16661 4.06783 5.11243 4.17353C5.05826 4.27923 4.97975 4.37055 4.88337 4.43998C4.787 4.5094 4.67552 4.55494 4.5581 4.57285C4.44068 4.59077 4.32069 4.58053 4.208 4.543C4.07 4.497 3.926 4.508 3.717 4.704C3.486 4.921 3.25 5.314 3.081 5.842C2.91061 6.37679 2.83447 6.93713 2.856 7.498C2.881 8.054 3.013 8.516 3.222 8.828C3.25641 8.87969 3.28429 8.93545 3.305 8.994H4.387C5.10679 8.9941 5.79989 9.26656 6.32707 9.75664C6.85425 10.2467 7.17647 10.9181 7.229 11.636C7.65978 11.8079 8.01743 12.1242 8.24074 12.5307C8.46404 12.9372 8.53911 13.4087 8.45311 13.8644C8.3671 14.3202 8.12536 14.7319 7.76927 15.0291C7.41318 15.3263 6.96486 15.4905 6.50106 15.4935C6.03726 15.4966 5.58681 15.3384 5.22681 15.046C4.8668 14.7535 4.61962 14.3451 4.52757 13.8905C4.43553 13.4359 4.50434 12.9635 4.72223 12.554C4.94012 12.1446 5.29354 11.8236 5.722 11.646C5.67453 11.3258 5.51361 11.0334 5.26857 10.8219C5.02352 10.6105 4.71067 10.4941 4.387 10.494H1.787C1.77867 10.4941 1.77033 10.4941 1.762 10.494C1.612 10.842 1.5 11.443 1.5 12.46C1.5 13.481 1.872 14.041 2.24 14.357C2.642 14.702 3.085 14.792 3.213 14.792C3.41191 14.792 3.60268 14.871 3.74333 15.0117C3.88398 15.1523 3.963 15.3431 3.963 15.542C3.963 15.962 4.195 16.725 4.723 17.385C5.232 18.022 5.956 18.49 6.908 18.49C7.545 18.49 8.132 18.132 8.598 17.644C8.824 17.406 9 17.159 9.116 16.959C9.16024 16.8842 9.19901 16.8064 9.232 16.726L9.237 16.712V7.244H8.342C8.16795 7.67427 7.84967 8.0306 7.44171 8.25194C7.03375 8.47327 6.56151 8.54583 6.10592 8.45717C5.65033 8.36851 5.23976 8.12416 4.94457 7.76599C4.64938 7.40782 4.48795 6.95814 4.48795 6.494C4.48795 6.02986 4.64938 5.58018 4.94457 5.22201C5.23976 4.86384 5.65033 4.61948 6.10592 4.53083C6.56151 4.44217 7.03375 4.51473 7.44171 4.73606C7.84967 4.9574 8.16795 5.31373 8.342 5.744H9.237V3.206L9.235 3.149C9.2211 2.84029 9.16041 2.53549 9.055 2.245C8.965 2.007 8.848 1.819 8.709 1.695C8.586 1.585 8.417 1.5 8.139 1.5C7.374 1.5 6.614 1.757 6.06 2.189ZM10.75 14.994V16.712L10.755 16.726C10.775 16.779 10.813 16.858 10.871 16.959C10.987 17.159 11.163 17.406 11.389 17.644C11.855 18.132 12.442 18.49 13.079 18.49C14.032 18.49 14.755 18.022 15.264 17.385C15.792 16.725 16.024 15.961 16.024 15.542C16.024 15.3431 16.103 15.1523 16.2437 15.0117C16.3843 14.871 16.5751 14.792 16.774 14.792C16.902 14.792 17.344 14.702 17.748 14.357C18.115 14.041 18.487 13.481 18.487 12.46C18.487 11.252 18.329 10.63 18.138 10.323C18.0782 10.2168 17.9875 10.1314 17.878 10.078C17.776 10.03 17.625 9.994 17.39 9.994C17.2542 9.99417 17.1208 9.95745 17.0043 9.88777C16.8877 9.81808 16.7922 9.71804 16.728 9.59832C16.6639 9.47861 16.6334 9.34372 16.6399 9.20805C16.6464 9.07237 16.6897 8.94102 16.765 8.828C16.974 8.515 17.106 8.054 17.131 7.498C17.1525 6.93713 17.0764 6.3768 16.906 5.842C16.736 5.314 16.502 4.922 16.27 4.704C16.062 4.508 15.917 4.497 15.78 4.543C15.6673 4.58073 15.5471 4.59111 15.4296 4.57329C15.312 4.55548 15.2004 4.50997 15.1039 4.44052C15.0074 4.37107 14.9288 4.27968 14.8746 4.17388C14.8203 4.06807 14.792 3.95089 14.792 3.832C14.792 3.18 14.472 2.614 13.927 2.189C13.373 1.758 12.614 1.499 11.847 1.499C11.57 1.499 11.401 1.586 11.278 1.695C11.139 1.819 11.023 2.007 10.933 2.245C10.8276 2.53549 10.7669 2.84029 10.753 3.149C10.7517 3.16799 10.7507 3.18699 10.75 3.206V13.494H11.387C11.745 13.494 12.0884 13.3518 12.3416 13.0986C12.5948 12.8454 12.737 12.502 12.737 12.144V10.349C12.3067 10.1749 11.9504 9.85667 11.7291 9.44871C11.5077 9.04075 11.4352 8.5685 11.5238 8.11292C11.6125 7.65733 11.8568 7.24676 12.215 6.95157C12.5732 6.65638 13.0229 6.49495 13.487 6.49495C13.9511 6.49495 14.4008 6.65638 14.759 6.95157C15.1172 7.24676 15.3615 7.65733 15.4502 8.11292C15.5388 8.5685 15.4663 9.04075 15.2449 9.44871C15.0236 9.85667 14.6673 10.1749 14.237 10.349V12.144C14.237 12.5183 14.1633 12.8889 14.0201 13.2346C13.8768 13.5804 13.6669 13.8946 13.4023 14.1593C13.1376 14.4239 12.8234 14.6338 12.4776 14.7771C12.1319 14.9203 11.7613 14.994 11.387 14.994H10.75ZM6.487 5.994C6.35439 5.994 6.22721 6.04668 6.13345 6.14045C6.03968 6.23421 5.987 6.36139 5.987 6.494C5.987 6.62661 6.03968 6.75379 6.13345 6.84755C6.22721 6.94132 6.35439 6.994 6.487 6.994C6.61961 6.994 6.74679 6.94132 6.84055 6.84755C6.93432 6.75379 6.987 6.62661 6.987 6.494C6.987 6.36139 6.93432 6.23421 6.84055 6.14045C6.74679 6.04668 6.61961 5.994 6.487 5.994ZM5.987 13.494C5.987 13.6266 6.03968 13.7538 6.13345 13.8476C6.22721 13.9413 6.35439 13.994 6.487 13.994C6.61961 13.994 6.74679 13.9413 6.84055 13.8476C6.93432 13.7538 6.987 13.6266 6.987 13.494C6.987 13.3614 6.93432 13.2342 6.84055 13.1404C6.74679 13.0467 6.61961 12.994 6.487 12.994C6.35439 12.994 6.22721 13.0467 6.13345 13.1404C6.03968 13.2342 5.987 13.3614 5.987 13.494ZM12.987 8.494C12.987 8.62661 13.0397 8.75379 13.1334 8.84755C13.2272 8.94132 13.3544 8.994 13.487 8.994C13.6196 8.994 13.7468 8.94132 13.8406 8.84755C13.9343 8.75379 13.987 8.62661 13.987 8.494C13.987 8.36139 13.9343 8.23421 13.8406 8.14045C13.7468 8.04668 13.6196 7.994 13.487 7.994C13.3544 7.994 13.2272 8.04668 13.1334 8.14045C13.0397 8.23421 12.987 8.36139 12.987 8.494Z" fill="white"/>
</g>
<defs>
<clipPath id="clip0_63_4">
<rect width="20" height="20" fill="white"/>
</clipPath>
</defs>
</svg>
